# xmcd
#
# Track frame offsets: 
#        150
#        15119
#        30838
#        44280
#        61623
#        76965
#        92685
#        108937
#        123675
#        148264
#        163978
#        176654
#
# Disc length: 2566 seconds
#
# Revision: 4
# Processed by: cddbd v1.5.2PL0 Copyright (c) Steve Scherf et al.
# Submitted via: ExactAudioCopy v1.0b3
#
DISCID=8f0a040c
DTITLE=Traveling Wilburys - Vol. 1
DYEAR=1988
DGENRE=Folk Rock
TTITLE0=Handle With Care
TTITLE1=Dirty World
TTITLE2=Rattled
TTITLE3=Last Night
TTITLE4=Not Alone Any More
TTITLE5=Congratulations
TTITLE6=Heading For The Light
TTITLE7=Margarita
TTITLE8=Tweeter And The Monkey Man
TTITLE9=End Of The Line
TTITLE10=Maxine
TTITLE11=Like A Ship
EXTD=
EXTT0=
EXTT1=
EXTT2=
EXTT3=
EXTT4=
EXTT5=
EXTT6=
EXTT7=
EXTT8=
EXTT9=
EXTT10=
EXTT11=
PLAYORDER=
